Source: Gamer.REPACK.1080p.BluRay.x264-HD1080

Poster: 
http://bayimg.com/image/aafahaaca.jpg

Icon: 
http://bayimg.com/image/aafaiaaca.jpg

I highly recommend playing h264 HD videos with VLC get it here: 
http://www.videolan.org/

I do not recommend playing with QuickTime/iIunes as QuickTime/iIunes is a dog and sucks at h264 decoding.  Only play with QuickTime/iIunes if you have a really powerful new PC.  VLC uses like 1/4 of the cpu power to play the same video.

Plays fine on PS3, Xbox 360, Popcorn Hour, old pentium 4's (with VLC), and Apple TV most likely.

Snaps: 
http://hiderefer.com/?http://img691.imageshack.us/img691/2969/vlcsnap2009112309h47m12.png 
http://hiderefer.com/?http://img682.imageshack.us/img682/7851/vlcsnap2009112309h47m21.png 
http://hiderefer.com/?http://img694.imageshack.us/img694/3672/vlcsnap2009112309h47m34.png 
http://hiderefer.com/?http://img26.imageshack.us/img26/9089/vlcsnap2009112309h47m40.png 
http://hiderefer.com/?http://img695.imageshack.us/img695/3638/vlcsnap2009112309h48m15.png 
http://hiderefer.com/?http://img4.imageshack.us/img4/4394/vlcsnap2009112309h48m41.png 
http://hiderefer.com/?http://img694.imageshack.us/img694/509/vlcsnap2009112309h48m47.png 
http://hiderefer.com/?http://img694.imageshack.us/img694/3803/vlcsnap2009112309h48m59.png 
http://hiderefer.com/?http://img130.imageshack.us/img130/5039/vlcsnap2009112309h49m30.png 
http://hiderefer.com/?http://img7.imageshack.us/img7/7843/vlcsnap2009112309h49m43.png 
http://hiderefer.com/?http://img4.imageshack.us/img4/3285/vlcsnap2009112309h50m23.png 
http://hiderefer.com/?http://img21.imageshack.us/img21/574/vlcsnap2009112309h50m39.png 
http://hiderefer.com/?http://img4.imageshack.us/img4/2816/vlcsnap2009112309h51m35.png 
http://hiderefer.com/?http://img42.imageshack.us/img42/2417/vlcsnap2009112309h51m54.png 
http://hiderefer.com/?http://img21.imageshack.us/img21/4151/vlcsnap2009112309h52m06.png 
http://hiderefer.com/?http://img21.imageshack.us/img21/9639/vlcsnap2009112309h52m43.png 
http://hiderefer.com/?http://img69.imageshack.us/img69/7395/vlcsnap2009112309h53m26.png 
http://hiderefer.com/?http://img39.imageshack.us/img39/8369/vlcsnap2009112309h45m09.png


Specs:

Video
Format                           : AVC
Format/Info                      : Advanced Video Codec
Format profile                   : High@L3.1
Format settings, CABAC           : No
Format settings, ReFrames        : 5 frames
Codec ID                         : avc1
Codec ID/Info                    : Advanced Video Coding
Duration                         : 1h 34mn
Bit rate mode                    : Variable
Bit rate                         : 1 664 Kbps
Width                            : 1 280 pixels
Height                           : 694 pixels
Display aspect ratio             : 16/9
Frame rate mode                  : Variable
Frame rate                       : 23.973 fps
Minimum frame rate               : 4.795 fps
Maximum frame rate               : 23.976 fps
Original frame rate              : 23.976 fps
Resolution                       : 24 bits
Colorimetry                      : 4:2:0
Scan type                        : Progressive
Bits/(Pixel*Frame)               : 0.078
Stream size                      : 1.10 GiB (91%)
Writing library                  : x264 core 78 r1318 fe83a90
Encoding settings                : cabac=0 / ref=5 / deblock=1:0:0 / analyse=0x3:0x133 / me=umh / subme=9 / psy=1 / psy_rd=1.0:0.0 / mixed_ref=1 / me_range=16 / chroma_me=1 / trellis=0 / 8x8dct=1 / cqm=0 / deadzone=21,11 / chroma_qp_offset=-2 / threads=3 / nr=0 / decimate=1 / mbaff=0 / constrained_intra=0 / bframes=3 / b_pyramid=0 / b_adapt=1 / b_bias=0 / direct=2 / wpredb=32 / keyint=250 / keyint_min=25 / scenecut=40 / rc_lookahead=40 / rc=2pass / mbtree=1 / bitrate=1664 / ratetol=2.4 / qcomp=0.60 / qpmin=10 / qpmax=51 / qpstep=4 / cplxblur=20.0 / qblur=0.5 / ip_ratio=1.41 / aq=1:1.00
Language                         : English
Encoded date                     : UTC 1970-01-01 00:00:00
Tagged date                      : UTC 1970-01-01 00:00:00

Audio
Format                           : AAC
Format/Info                      : Advanced Audio Codec
Format version                   : Version 4
Format profile                   : LC
Format settings, SBR             : No
Codec ID                         : 40
Duration                         : 1h 34mn
Bit rate mode                    : Variable
Bit rate                         : 160 Kbps
Channel(s)                       : 2 channels
Channel positions                : L R
Sampling rate                    : 48.0 KHz
Resolution                       : 16 bits
Stream size                      : 108 MiB (9%)
Encoded date                     : UTC 1970-01-01 00:00:00
Tagged date                      : UTC 1970-01-01 00:00:00


-HR
